<svg width="96" height="14" viewBox="0 0 96 14" fill="none" xmlns="http://www.w3.org/2000/svg">
<g id="Providers Logo" clip-path="url(#clip0_413_7246)">
<g id="Clip path group">
<mask id="mask0_413_7246" style="mask-type:luminance" maskUnits="userSpaceOnUse" x="0" y="0" width="96" height="14">
<g id="clip0_495_4807">
<path id="Vector" d="M95.5 0.642578H0.5V13.3593H95.5V0.642578Z" fill="white"/>
</g>
</mask>
<g mask="url(#mask0_413_7246)">
<g id="Group">
<path id="Vector_2" fill-rule="evenodd" clip-rule="evenodd" d="M4.25568 7.14689C4.27058 5.44693 5.87574 3.26065 8.612 2.06593C13.4275 -0.0377203 16.1853 1.90202 16.8992 3.73611C17.5643 5.44558 16.2491 8.44592 13.9693 10.6823C15.5961 9.51606 16.9249 8.2644 17.8474 7.04802C19.0706 5.43338 19.5772 3.8824 19.1126 2.67683C18.4245 0.896933 15.7424 0.325304 12.3397 0.804821C8.93842 1.28434 6.32546 2.12011 4.22723 3.18615C1.89331 4.3714 0.689098 5.78015 0.517067 7.388C0.266472 9.72329 2.76836 12.8605 8.49142 13.2479C11.4985 13.4511 14.3838 13.5188 19.9687 12.1629C19.3036 12.1845 4.19608 14.0606 4.25703 7.14689H4.25568Z" fill="white"/>
<path id="Vector_3" fill-rule="evenodd" clip-rule="evenodd" d="M9.81229 9.8648C11.6044 9.8648 13.0673 8.40319 13.0673 6.61111C13.0673 4.819 11.6057 3.35742 9.81229 3.35742C8.02021 3.35742 6.55859 4.819 6.55859 6.61111C6.55859 8.40319 8.02021 9.8648 9.81229 9.8648Z" fill="white"/>
<path id="Vector_4" d="M27.8424 9.75086H24.0387L23.3317 11.4982H20.7363L24.7079 2.50391H27.2139L31.1977 11.4996H28.5508L27.8437 9.75219L27.8424 9.75086ZM27.0973 7.8748L25.9406 4.99631L24.7838 7.8748H27.0973Z" fill="white"/>
<path id="Vector_5" d="M41.1552 11.4996L41.1294 6.73151L38.8159 10.6124H37.6848L35.3847 6.8602V11.4996H33.0332V2.50391H35.1273L38.2889 7.69595L41.3733 2.50391H43.4674L43.4931 11.4996H41.1538H41.1552Z" fill="white"/>
<path id="Vector_6" d="M47.4442 10.5866C46.7032 9.85783 46.332 8.82569 46.332 7.49005V2.50391H48.8759V7.41285C48.8759 8.85279 49.4462 9.57207 50.5854 9.57207C51.7246 9.57207 52.2813 8.85279 52.2813 7.41285V2.50391H54.7873V7.49005C54.7873 8.82702 54.4161 9.85922 53.6752 10.5866C52.9342 11.3154 51.8952 11.6784 50.5583 11.6784C49.2214 11.6784 48.1837 11.3141 47.4428 10.5866H47.4442Z" fill="white"/>
<path id="Vector_7" d="M58.6702 11.4087C57.9848 11.2285 57.4281 10.9888 57 10.6894L57.8358 8.81337C58.2381 9.07887 58.7054 9.29287 59.2364 9.45545C59.7674 9.61796 60.2903 9.69922 60.8037 9.69922C61.7803 9.69922 62.2679 9.45545 62.2679 8.96645C62.2679 8.70906 62.1284 8.51944 61.8508 8.3948C61.5717 8.27016 61.1247 8.14014 60.5083 8.00334C59.8311 7.85837 59.2662 7.70124 58.8124 7.53467C58.3586 7.36804 57.9686 7.09983 57.6435 6.73142C57.3183 6.36294 57.1558 5.86582 57.1558 5.24001C57.1558 4.69141 57.3062 4.19699 57.6055 3.7554C57.9048 3.31381 58.3532 2.96569 58.9493 2.70832C59.5452 2.45095 60.2753 2.32227 61.1396 2.32227C61.7302 2.32227 62.314 2.38864 62.887 2.52139C63.4613 2.65414 63.9664 2.84919 64.404 3.10656L63.6198 4.99619C62.7637 4.53292 61.932 4.30265 61.126 4.30265C60.6208 4.30265 60.2524 4.37715 60.0207 4.52751C59.7891 4.67786 59.6739 4.87292 59.6739 5.11268C59.6739 5.35244 59.8107 5.53259 60.0857 5.6518C60.3593 5.77235 60.8009 5.89562 61.4091 6.0243C62.0945 6.1706 62.6621 6.32637 63.1119 6.49297C63.5615 6.6596 63.9518 6.92509 64.2805 7.28945C64.6099 7.65387 64.7752 8.14825 64.7752 8.77411C64.7752 9.3132 64.6251 9.8022 64.3255 10.2384C64.0259 10.6759 63.5765 11.024 62.9764 11.2855C62.3763 11.5469 61.6489 11.6769 60.7914 11.6769C60.0627 11.6769 59.3569 11.5875 58.6716 11.4074L58.6702 11.4087Z" fill="white"/>
<path id="Vector_8" d="M75.6208 2.50391V11.4996H73.527L69.5566 6.70579V11.4996H67.0645V2.50391H69.1583L73.1286 7.29771V2.50391H75.6221H75.6208Z" fill="white"/>
<path id="Vector_9" d="M85.7596 9.53274V11.4982H78.5371V2.50391H85.5918V4.46939H81.0552V5.98515H85.0516V7.88696H81.0552V9.53141H85.7584L85.7596 9.53274Z" fill="white"/>
<path id="Vector_10" d="M90.2066 4.52086H87.4434V2.50391H95.5V4.52086H92.7501V11.4982H90.2066V4.52086Z" fill="white"/>
</g>
</g>
</g>
</g>
<defs>
<clipPath id="clip0_413_7246">
<rect width="95" height="13.9333" fill="white" transform="translate(0.5 0.0332031)"/>
</clipPath>
</defs>
</svg>
