<svg width="124" height="32" viewBox="0 0 124 32" fill="none" xmlns="http://www.w3.org/2000/svg">
<g id="Providers Logo" clip-path="url(#clip0_413_7716)">
<path id="Vector" d="M9.9095 1.73989C11.0165 1.30939 12.1645 1.00189 13.333 0.837891C13.5585 3.13389 14.2145 5.34789 15.26 7.37739C16.3055 5.34789 16.982 3.11339 17.228 0.837891C18.3965 1.00189 19.5445 1.30939 20.6515 1.73989C20.4055 3.60539 19.934 5.42989 19.2575 7.17239C21.1435 6.47539 22.8245 5.32739 24.1775 3.78989C25.1205 4.52789 25.961 5.36839 26.699 6.31139C24.3825 8.93539 21.3075 10.6779 17.925 11.2929C18.95 12.3999 20.0775 13.3634 21.3075 14.1834C23.3985 12.0924 25.92 10.5139 28.6875 9.59139C29.1795 10.6984 29.528 11.8464 29.774 13.0149C27.9085 13.6299 26.1865 14.6139 24.69 15.8849C26.412 16.4999 28.1955 16.8484 30.02 16.9099C29.938 18.1194 29.733 19.3084 29.3845 20.4769C23.993 20.1284 18.9295 17.6479 15.26 13.5684C11.5905 17.6684 6.527 20.1489 1.1355 20.4769C0.787 19.3084 0.582 18.1194 0.5 16.9099C2.3245 16.8484 4.1285 16.4794 5.8505 15.8234C4.3335 14.5524 2.6115 13.5684 0.7665 12.9329C1.0125 11.7644 1.3815 10.6369 1.853 9.55039C4.6205 10.4729 7.142 12.0514 9.233 14.1424C10.4835 13.3224 11.611 12.3384 12.636 11.2314C9.2535 10.6164 6.158 8.85339 3.862 6.22939C4.6 5.28639 5.461 4.44589 6.404 3.70789C7.7365 5.24539 9.438 6.39339 11.324 7.09039C10.627 5.38889 10.1555 3.58489 9.9095 1.73989ZM8.495 19.2469C9.5815 18.7549 10.627 18.1809 11.611 17.5044C12.841 19.1239 14.071 20.7844 15.26 22.4039C16.49 20.7844 17.72 19.1444 18.909 17.5044C19.893 18.1604 20.9385 18.7549 22.025 19.2469C20.385 21.5224 18.6425 23.7364 17.023 25.9914V31.0549C15.8545 31.1984 14.686 31.1984 13.538 31.0549V25.9914L8.495 19.2469Z" fill="white"/>
<path id="Vector_2" d="M103.534 10.1658C104.538 9.53028 105.748 9.28428 106.896 9.50978C107.982 9.65328 109.028 10.1043 109.889 10.8218L108.679 12.6258C107.798 11.8878 106.67 11.5188 105.543 11.5803C105.03 11.6418 104.477 12.0313 104.559 12.6053C104.641 13.1793 104.989 13.3843 105.379 13.5278C106.65 14.0198 108.064 14.1428 109.171 15.0038C110.34 16.0493 110.545 17.8328 109.663 19.1448C109.089 19.9443 108.208 20.4568 107.244 20.5798C105.276 20.8668 103.308 20.2518 101.832 18.8988L103.185 17.2178C103.985 17.9558 104.969 18.4068 106.035 18.5298C106.609 18.6323 107.203 18.4888 107.675 18.1198C107.859 17.9148 107.941 17.6073 107.9 17.3203C107.839 17.0333 107.675 16.7873 107.408 16.6643C106.076 15.9468 104.436 15.9673 103.206 14.9833C102.55 14.4298 102.201 13.5688 102.263 12.7078C102.283 11.7238 102.755 10.7603 103.534 10.1658ZM49.2499 10.1658C50.6029 9.46878 52.1609 9.30478 53.6369 9.69428C54.5389 9.91978 55.3999 10.3503 56.0969 10.9858L54.6209 12.8103C53.9444 12.1543 53.0834 11.7648 52.1609 11.7238C51.1974 11.6418 50.2339 12.0518 49.6189 12.8103C48.4094 14.3273 48.5529 16.5413 49.9469 17.8738C51.1974 18.8578 52.9194 18.9193 54.2109 17.9968V16.8283H53.1039V14.9628H56.4249V19.0833C54.9694 20.3748 53.0424 20.9898 51.1359 20.7643C49.7214 20.6208 48.4299 19.9033 47.5279 18.7758C46.5029 17.4023 46.1339 15.6393 46.4824 13.9378C46.8309 12.3183 47.8354 10.9448 49.2499 10.1658ZM60.5249 10.3708C61.9599 9.50978 63.6819 9.26378 65.2809 9.69428C66.1624 9.91978 67.0029 10.3503 67.6794 10.9653C67.1874 11.5598 66.6954 12.1748 66.2239 12.7693C65.5269 12.0928 64.6454 11.7033 63.6819 11.6828C62.6569 11.6213 61.6524 12.0928 61.0579 12.9743C59.9919 14.5323 60.2379 16.6643 61.6319 17.9148C62.8824 18.7963 64.5429 18.7963 65.8139 17.9148V16.7873H64.7274V14.9218H68.0484V19.0628C66.8389 20.1288 65.3014 20.7233 63.7024 20.7438C62.1649 20.8258 60.6684 20.2723 59.5409 19.1858C58.4544 18.0583 57.9009 16.5003 57.9829 14.9218C58.0444 13.0768 58.9874 11.3753 60.5249 10.3708ZM36.1914 9.69428H38.8974C39.7174 11.3138 40.5784 12.9333 41.4189 14.5528L43.9609 9.69428H46.5849C45.2524 12.1748 43.8584 14.6143 42.5259 17.1153V20.6003H40.2504V17.1358C38.9179 14.6348 37.5239 12.1748 36.1914 9.69428ZM69.9139 9.69428H73.4809C75.4489 9.59178 77.3349 10.5963 78.4009 12.3183C79.2824 13.8763 79.4054 15.7828 78.6879 17.4433C77.8269 19.3088 76.0024 20.5388 73.9934 20.6003H69.8934C69.9139 16.9513 69.9139 13.3228 69.9139 9.69428ZM72.2304 11.8058V18.4068C73.2759 18.4068 74.4034 18.5298 75.3259 17.9148C76.2279 17.2588 76.7404 16.2133 76.7404 15.0858C76.7404 13.9583 76.1869 12.9128 75.2849 12.2773C74.3829 11.7238 73.2759 11.8468 72.2304 11.8058ZM80.6559 9.69428H85.4324C86.7649 9.65328 88.0154 10.3503 88.7124 11.5188C89.4299 12.9743 89.1839 14.7373 88.0974 15.9058C87.7284 16.2543 87.2979 16.5003 86.8469 16.6848L89.4299 20.5798H86.7239C85.9859 19.4113 85.2274 18.2633 84.4689 17.0948H83.8539V14.9833C84.6329 14.9423 85.4939 15.1473 86.1909 14.6758C86.6214 14.3478 86.8469 13.8148 86.7854 13.2613C86.7239 12.7078 86.3959 12.2363 85.9039 12.0108C84.9404 11.8263 83.9564 11.7648 82.9724 11.8468V20.6003H80.6764C80.6559 16.9513 80.6559 13.3228 80.6559 9.69428ZM90.1884 20.6208L94.6984 9.65328H96.8304L101.34 20.6208H98.8804C98.5524 19.7803 98.2244 18.9808 97.9169 18.1608H94.3909L95.2109 16.0698H97.0969L95.7029 12.5233C94.6369 15.2293 93.5709 17.9353 92.5049 20.6413H90.1884V20.6208ZM112.021 9.69428H114.317V20.6003H112.021V9.69428ZM116.244 9.69428H118.581V18.4273H123.501V20.6003H116.244C116.244 16.9513 116.223 13.3228 116.244 9.69428Z" fill="white"/>
</g>
<defs>
<clipPath id="clip0_413_7716">
<rect width="123" height="30.3256" fill="white" transform="translate(0.5 0.837891)"/>
</clipPath>
</defs>
</svg>
