<svg width="16" height="16" viewBox="0 0 16 16" fill="none" xmlns="http://www.w3.org/2000/svg">
<g id="Flags">
<g clip-path="url(#clip0_474_53713)">
<rect x="0.5" y="0.5" width="15" height="15" rx="7.5" fill="#1A47B8"/>
<path id="Vector" fill-rule="evenodd" clip-rule="evenodd" d="M-0.266028 0.5H-2.5V3L16.2539 15.5L18.5 15.5V13L-0.266028 0.5Z" fill="white"/>
<path id="Vector_2" d="M-1.7549 0.5L18.5 14.0354V15.5H17.7724L-2.5 1.95056V0.5H-1.7549Z" fill="#F93939"/>
<path id="Vector_3" fill-rule="evenodd" clip-rule="evenodd" d="M16.5 0.5H18.5V3C18.5 3 5.5098 11.3281 -0.5 15.5H-2.5V13L16.5 0.5Z" fill="white"/>
<path id="Vector_4" d="M18.5 0.5H17.8218L-2.5 14.0471V15.5H-1.7549L18.5 1.96151V0.5Z" fill="#F93939"/>
<path id="Vector_5" fill-rule="evenodd" clip-rule="evenodd" d="M5.13708 0.5H10.8804V5.12682H18.5V10.8701H10.8804V15.5H5.13708V10.8701H-2.5V5.12682H5.13708V0.5Z" fill="white"/>
<path id="Vector_6" fill-rule="evenodd" clip-rule="evenodd" d="M6.3421 0.5H9.65789V6.26923H18.5V9.73077H9.65789V15.5H6.3421V9.73077H-2.5V6.26923H6.3421V0.5Z" fill="#F93939"/>
</g>
</g>
<defs>
<clipPath id="clip0_474_53713">
<rect x="0.5" y="0.5" width="15" height="15" rx="7.5" fill="white"/>
</clipPath>
</defs>
</svg>
