<svg width="121" height="21" viewBox="0 0 121 21" fill="none" xmlns="http://www.w3.org/2000/svg">
<path d="M10.8289 13.892C10.8289 12.731 10.0999 12.11 8.80394 12.11H5.75294V15.566H8.83094C10.1539 15.566 10.8289 15.026 10.8289 13.892ZM10.4239 6.71C10.4239 5.576 9.72194 5.009 8.42594 5.009H5.75294V8.357H8.42594C9.72194 8.357 10.4239 7.817 10.4239 6.71ZM16.2559 14.648C16.2559 17.861 13.9609 19.832 9.88394 19.832H0.460938V0.797H9.58694C13.4479 0.797 15.8239 2.579 15.8239 5.738C15.8239 8.033 14.4739 9.545 12.6109 10.058C14.8789 10.571 16.2559 12.488 16.2559 14.648Z" fill="#E10A0A"/>
<path d="M30.7522 0.797V5.036H23.8672V8.141H29.9422V12.164H23.8672V15.593H30.7522V19.832H18.5752V0.797H30.7522Z" fill="#E10A0A"/>
<path d="M32.3142 5.009V0.797H47.7042V5.009H42.6282V19.832H37.3362V5.009H32.3142Z" fill="#E10A0A"/>
<path d="M54.9541 9.194H57.0601C58.6531 9.194 59.3011 8.384 59.3011 7.142C59.3011 5.873 58.6531 5.063 57.0601 5.063H54.9541V9.194ZM64.7011 7.142C64.7011 10.463 62.4061 13.406 57.5731 13.406H54.9541V19.832H49.6621V0.797H57.5731C62.2981 0.797 64.7011 3.47 64.7011 7.142Z" fill="#E10A0A"/>
<path d="M85.7001 10.247C85.7001 15.971 81.3531 20.021 75.9531 20.021C70.5531 20.021 66.1792 15.971 66.1792 10.247C66.1792 4.523 70.5531 0.5 75.9531 0.5C81.3801 0.5 85.7001 4.523 85.7001 10.247ZM71.5791 10.247C71.5791 13.19 73.1992 15.107 75.9531 15.107C78.6801 15.107 80.3271 13.19 80.3271 10.247C80.3271 7.25 78.6801 5.36 75.9531 5.36C73.1992 5.36 71.5791 7.25 71.5791 10.247Z" fill="#E10A0A"/>
<path d="M106.952 10.247C106.952 15.971 102.605 20.021 97.2051 20.021C91.8051 20.021 87.4311 15.971 87.4311 10.247C87.4311 4.523 91.8051 0.5 97.2051 0.5C102.632 0.5 106.952 4.523 106.952 10.247ZM92.8311 10.247C92.8311 13.19 94.4511 15.107 97.2051 15.107C99.9321 15.107 101.579 13.19 101.579 10.247C101.579 7.25 99.9321 5.36 97.2051 5.36C94.4511 5.36 92.8311 7.25 92.8311 10.247Z" fill="#E10A0A"/>
<path d="M109.331 0.797H114.623V15.782H120.536V19.832H109.331V0.797Z" fill="#E10A0A"/>
</svg>
