<svg width="29" height="30" viewBox="0 0 29 30" fill="none" xmlns="http://www.w3.org/2000/svg">
<g id="Group">
<path id="Vector" d="M14.4609 0.75C22.3307 0.75 28.7109 7.13025 28.7109 15C28.7109 22.8698 22.3307 29.25 14.4609 29.25C6.59119 29.25 0.210938 22.8698 0.210938 15C0.210938 7.13025 6.59119 0.75 14.4609 0.75ZM14.4609 2.25C7.41919 2.25 1.71094 7.95825 1.71094 15C1.71094 22.0417 7.41919 27.75 14.4609 27.75C21.5027 27.75 27.2109 22.0417 27.2109 15C27.2109 7.95825 21.5027 2.25 14.4609 2.25Z" fill="#E10A0A"/>
<path id="Vector_2" d="M14.4609 3.75C20.6739 3.75 25.7109 8.787 25.7109 15C25.7109 21.213 20.6739 26.25 14.4609 26.25C8.24794 26.25 3.21094 21.213 3.21094 15C3.21094 8.787 8.24794 3.75 14.4609 3.75ZM14.4609 5.25C9.07594 5.25 4.71094 9.615 4.71094 15C4.71094 20.385 9.07594 24.75 14.4609 24.75C19.8459 24.75 24.2109 20.385 24.2109 15C24.2109 9.615 19.8459 5.25 14.4609 5.25Z" fill="#E10A0A"/>
<path id="Vector_3" fill-rule="evenodd" clip-rule="evenodd" d="M24.9609 13.5H27.9609V16.5H24.9609V13.5ZM0.960938 13.5H3.96094V16.5H0.960938V13.5ZM15.9609 25.5V28.5H12.9609V25.5H15.9609ZM15.9609 1.5V4.5H12.9609V1.5H15.9609ZM8.09719 23.4847L5.97544 25.6065L3.85444 23.4847L5.97544 21.3638L8.09719 23.4847ZM25.0674 6.51525L22.9464 8.63625L20.8247 6.51525L22.9464 4.3935L25.0674 6.51525ZM22.9464 21.3645L25.0674 23.4855L22.9464 25.6073L20.8247 23.4855L22.9464 21.3645ZM5.97544 4.39275L8.09719 6.5145L5.97544 8.6355L3.85444 6.5145L5.97544 4.39275ZM16.3982 17.8995L16.5662 18.243C16.8812 18.8902 16.4717 19.5 15.7149 19.5H13.2489C12.4982 19.5 12.0789 18.8947 12.3842 18.246L12.7179 17.5373H12.4374C11.785 17.5491 11.1535 17.3068 10.6764 16.8615C10.4505 16.6532 10.2703 16.4003 10.147 16.1189C10.0238 15.8374 9.9602 15.5334 9.96034 15.2262C9.96048 14.9189 10.0243 14.615 10.1478 14.3336C10.2713 14.0523 10.4518 13.7996 10.6779 13.5915L13.5894 10.8405C13.8268 10.6216 14.138 10.5 14.4609 10.5C14.7839 10.5 15.095 10.6216 15.3324 10.8405L18.2439 13.5922C18.4699 13.8003 18.6503 14.053 18.7737 14.3343C18.8972 14.6156 18.961 14.9194 18.9611 15.2265C18.9613 15.5337 18.8977 15.8376 18.7746 16.119C18.6514 16.4004 18.4712 16.6532 18.2454 16.8615C17.7828 17.2932 17.1743 17.5346 16.5414 17.5373H16.2242L16.3982 17.8995Z" fill="#E10A0A"/>
</g>
</svg>
