<svg width="120" height="21" viewBox="0 0 120 21" fill="none" xmlns="http://www.w3.org/2000/svg">
<g id="logo-white-bg" clip-path="url(#clip0_453_53723)">
<g id="Group">
<path id="Vector" d="M70.377 12.1821H67.8649V16.9938H64V3.4668H70.435C73.1404 3.4668 75.6139 4.93545 75.6139 7.8341C75.6139 10.7328 73.0245 12.1821 70.377 12.1821ZM67.8649 6.42342V9.22546H70.0679C70.9374 9.22546 71.6718 8.781 71.6718 7.8341C71.6718 7.42829 71.5365 7.08045 71.266 6.80991C70.9761 6.55869 70.5896 6.42342 70.0679 6.42342H67.8649Z" fill="#1A242D"/>
<path id="Vector_2" d="M84.1745 17.3202C80.0777 17.3202 76.7539 14.3056 76.7539 10.1895C76.7539 6.0734 80.1357 3.07812 84.1745 3.07812C88.2133 3.07812 91.595 6.03475 91.595 10.1895C91.595 14.3442 88.2326 17.3202 84.1745 17.3202ZM84.1745 13.8418C86.2615 13.8418 87.6528 12.1992 87.6528 10.1895C87.6528 8.17976 86.2035 6.55651 84.1745 6.55651C82.1454 6.55651 80.6961 8.21841 80.6961 10.1895C80.6961 12.1606 82.1454 13.8418 84.1745 13.8418Z" fill="#1A242D"/>
<path id="Vector_3" d="M100.04 17.3202C95.9429 17.3202 92.6191 14.3056 92.6191 10.1895C92.6191 6.0734 96.0009 3.07812 100.04 3.07812C104.078 3.07812 107.46 6.03475 107.46 10.1895C107.46 14.3442 104.098 17.3202 100.04 17.3202ZM100.04 13.8418C102.127 13.8418 103.518 12.1992 103.518 10.1895C103.518 8.17976 102.069 6.55651 100.04 6.55651C98.0106 6.55651 96.5613 8.21841 96.5613 10.1895C96.5613 12.1606 98.0106 13.8418 100.04 13.8418Z" fill="#1A242D"/>
<path id="Vector_4" d="M112.851 13.7474H119.035V16.9938H108.986V3.4668H112.851V13.7474Z" fill="#1A242D"/>
</g>
<g id="Group_2">
<path id="Vector_5" d="M34.2551 10.0004C35.6851 10.5801 36.5547 11.643 36.5547 13.2276C36.5547 15.8363 34.1005 16.9958 31.8203 16.9958H24.8828V3.46875H31.5884C33.8107 3.46875 36.1296 4.64754 36.1296 7.10173C36.1296 8.45444 35.3953 9.36268 34.2551 10.0004ZM28.7477 6.42538V8.91822H30.8154C31.6463 8.91822 32.342 8.55106 32.342 7.64281C32.342 6.73457 31.627 6.42538 30.8154 6.42538H28.7477ZM28.7477 11.4111V14.0392H31.028C31.8782 14.0392 32.6319 13.6527 32.6319 12.7058C32.6319 11.7589 31.8782 11.4111 31.028 11.4111H28.7477Z" fill="#1A242D"/>
<path id="Vector_6" d="M48.4392 6.71524H42.0621V8.62835H47.6662V11.585H42.0621V13.7493H48.6324V16.9958H38.1973V3.46875H48.4392V6.71524Z" fill="#1A242D"/>
<path id="Vector_7" d="M62.0045 6.71524H57.9464V16.9958H54.0816V6.71524H50.0234V3.46875H62.0045V6.71524Z" fill="#1A242D"/>
</g>
<g id="Group_3">
<path id="Vector_8" d="M10.2022 2.53906H10.2001C5.96903 2.53906 2.53906 5.96903 2.53906 10.2001V10.2022C2.53906 14.4333 5.96903 17.8633 10.2001 17.8633H10.2022C14.4333 17.8633 17.8633 14.4333 17.8633 10.2022V10.2001C17.8633 5.96903 14.4333 2.53906 10.2022 2.53906Z" fill="#F4F4F4"/>
<g id="Group_4">
<path id="Vector_9" d="M10.8653 8.6748C10.9168 8.4923 11.0607 8.33985 11.241 8.28188C11.3634 8.24108 11.488 8.24108 11.5996 8.27329C11.4729 8.14016 11.4064 7.94692 11.4472 7.74079C11.4944 7.5089 11.6877 7.31995 11.9195 7.27916C12.2974 7.21259 12.6238 7.50031 12.6238 7.86318C12.6238 8.02207 12.5594 8.16593 12.4585 8.27114C12.568 8.23893 12.6947 8.23893 12.8171 8.27973C12.9974 8.3377 13.1413 8.488 13.195 8.67051C13.3066 9.07417 13.0082 9.43704 12.6238 9.43704C12.3533 9.43704 12.1214 9.25454 12.0505 9.00547C12.0505 9.51434 12.3404 9.81709 12.5014 9.94592C12.5122 9.95451 12.5057 9.97168 12.4928 9.97168H12.4885C12.3404 9.918 12.1858 9.89009 12.0312 9.89009C11.8766 9.89009 11.7199 9.918 11.5717 9.97168H11.5674C11.5524 9.97168 11.5459 9.95451 11.5588 9.94592C11.6082 9.90727 11.6683 9.85144 11.7306 9.77844C11.8702 9.61311 12.0097 9.35975 12.0097 9.00761C11.9367 9.25453 11.7113 9.43704 11.4386 9.43704C11.0542 9.43704 10.7558 9.07203 10.8674 8.67266L10.8653 8.6748Z" fill="#464646"/>
<g id="Group_5" opacity="0.2">
<path id="Vector_10" d="M11.136 8.82719C11.1876 8.64469 11.3314 8.49224 11.5118 8.43427C11.6342 8.39347 11.7587 8.39347 11.8704 8.42568C11.7437 8.29255 11.6771 8.09931 11.7179 7.89318C11.7651 7.66129 11.9584 7.47234 12.1903 7.43154C12.2805 7.41651 12.3685 7.42081 12.4479 7.44228C12.317 7.31345 12.1259 7.2426 11.9197 7.2791C11.6857 7.32204 11.4946 7.51099 11.4474 7.74074C11.4066 7.94686 11.4731 8.14011 11.5998 8.27323C11.4903 8.24102 11.3636 8.24102 11.2412 8.28182C11.0609 8.33979 10.917 8.49224 10.8655 8.67475C10.7689 9.02258 10.9793 9.34251 11.2885 9.41981C11.1425 9.27595 11.0716 9.05694 11.136 8.82719Z" fill="#F4F4F4"/>
</g>
<path id="Vector_11" d="M9.15581 7.28008C8.87239 7.28008 8.62547 7.43253 8.49664 7.66228C8.36996 7.43038 8.12518 7.27364 7.84176 7.27149C7.42736 7.26935 7.08811 7.60216 7.08596 8.0187C7.07952 9.00854 8.48161 9.88672 8.48161 9.88672C8.48161 9.88672 9.89443 9.02572 9.90088 8.03588C9.90302 7.62148 9.57021 7.28223 9.15367 7.28008H9.15581Z" fill="#E10A0A"/>
<g id="Group_6" opacity="0.2">
<path id="Vector_12" d="M7.34362 8.16276C7.34577 7.74836 7.68502 7.4134 8.09942 7.41555C8.17886 7.41555 8.25616 7.43058 8.32916 7.4542C8.19818 7.3404 8.02856 7.26954 7.84176 7.26954C7.42736 7.26739 7.08811 7.6002 7.08596 8.01675C7.07952 9.00659 8.48161 9.88477 8.48161 9.88477C8.48161 9.88477 8.4902 9.87833 8.50737 9.86974C8.11015 9.57129 7.33932 8.89708 7.34362 8.16276Z" fill="#F4F4F4"/>
</g>
<path id="Vector_13" d="M9.76041 12.2164C9.75826 12.59 9.45336 12.8906 9.07976 12.8884C8.8629 12.8884 8.66751 12.7832 8.54512 12.6222C8.62242 13.0538 8.88222 13.3222 9.03682 13.4488C9.0497 13.4574 9.04326 13.4789 9.02608 13.4789C9.02393 13.4789 9.02179 13.4789 9.01964 13.4789C8.85001 13.4188 8.6718 13.3866 8.49144 13.3866C8.31108 13.3866 8.13501 13.4188 7.96324 13.4789C7.96109 13.4789 7.95895 13.4789 7.9568 13.4789C7.93962 13.4789 7.93318 13.4574 7.94606 13.4488C8.00404 13.4038 8.07489 13.3393 8.1436 13.2556C8.27028 13.1053 8.39697 12.8906 8.4442 12.6072C8.32182 12.7746 8.11998 12.882 7.89668 12.882C7.52308 12.8798 7.22247 12.575 7.22462 12.2013C7.23106 11.3103 8.50218 10.5352 8.50218 10.5352C8.50218 10.5352 9.7647 11.3275 9.75826 12.2164H9.76041Z" fill="#464646"/>
<g id="Group_7" opacity="0.2">
<path id="Vector_14" d="M7.48422 12.3474C7.48852 11.5314 8.55565 10.8143 8.73601 10.6983C8.59859 10.5953 8.50412 10.5352 8.50412 10.5352C8.50412 10.5352 7.233 11.3103 7.22656 12.2013C7.22656 12.5062 7.42625 12.7639 7.70538 12.8498C7.57011 12.7253 7.48422 12.547 7.48422 12.3474Z" fill="#F4F4F4"/>
</g>
<path id="Vector_15" d="M12.0678 10.3145C12.0678 10.3145 11.7264 11.1025 10.7988 11.8883C11.7157 12.6828 12.0442 13.4751 12.0442 13.4751C12.0442 13.4751 12.3856 12.6871 13.3131 11.9012C12.3963 11.1068 12.0678 10.3145 12.0678 10.3145Z" fill="#E10A0A"/>
<path id="Vector_16" opacity="0.11" d="M13.1931 8.67338C13.1394 8.49087 12.9955 8.34057 12.8152 8.2826C12.6928 8.2418 12.5682 8.2418 12.4566 8.27401C12.5575 8.1688 12.6219 8.02494 12.6219 7.86605C12.6219 7.53754 12.3578 7.27344 12.0293 7.27344V9.89511C12.1839 9.89511 12.3406 9.92302 12.4866 9.9767H12.4909C12.506 9.9767 12.5124 9.95952 12.4995 9.94879C12.3363 9.81781 12.0486 9.51506 12.0486 9.00834C12.1195 9.25955 12.3492 9.43991 12.6219 9.43991C13.0063 9.43991 13.3047 9.0749 13.1931 8.67338Z" fill="#1A242D"/>
<g id="Group_8" opacity="0.11">
<g id="Group_9">
<path id="Vector_17" d="M9.90267 8.03509C9.90482 7.62069 9.57201 7.28144 9.15546 7.2793C8.87204 7.2793 8.62512 7.43174 8.49629 7.66149C8.49629 7.66149 8.49629 7.65934 8.49414 7.6572V9.87735C8.62726 9.79361 9.89623 8.97125 9.90267 8.03509Z" fill="#1A242D"/>
<path id="Vector_18" d="M9.02215 13.4769C9.02215 13.4769 9.02644 13.4769 9.02859 13.4769C9.04576 13.4769 9.05221 13.4555 9.03932 13.4469C8.88258 13.3202 8.62492 13.0518 8.54762 12.6202C8.67001 12.7813 8.86326 12.8865 9.08227 12.8865C9.45587 12.8908 9.76077 12.588 9.76291 12.2144C9.76935 11.3234 8.50683 10.5332 8.50683 10.5332C8.50683 10.5332 8.50254 10.5354 8.49609 10.5396V13.3825C8.67431 13.3825 8.85252 13.4147 9.02429 13.4748L9.02215 13.4769Z" fill="#1A242D"/>
</g>
</g>
<g id="Group_10" opacity="0.11">
<path id="Vector_19" d="M13.3127 11.9032C12.3959 11.1087 12.0674 10.3164 12.0674 10.3164C12.0674 10.3164 12.0631 10.3271 12.0566 10.3422V13.4512C12.1211 13.316 12.4796 12.6096 13.3127 11.9032Z" fill="#1A242D"/>
</g>
<g id="Group_11" opacity="0.2">
<path id="Vector_20" d="M12.0571 13.1507C11.8617 12.8522 11.5482 12.4442 11.078 12.0363C11.5417 11.6434 11.8574 11.2504 12.0571 10.9563V10.3422C12.0571 10.3422 12.0571 10.34 12.0571 10.3379C11.9991 10.4624 11.6427 11.1774 10.7988 11.8903C11.7157 12.6847 12.0442 13.477 12.0442 13.477C12.0442 13.477 12.0742 13.4062 12.1408 13.2881C12.0979 13.3654 12.0699 13.4233 12.0549 13.4513V13.1507H12.0571Z" fill="#F4F4F4"/>
</g>
</g>
</g>
<g id="Group_12">
<path id="Vector_21" d="M10.2019 15.851C13.3218 15.851 15.851 13.3218 15.851 10.2019C15.851 7.08195 13.3218 4.55273 10.2019 4.55273C7.08195 4.55273 4.55273 7.08195 4.55273 10.2019C4.55273 13.3218 7.08195 15.851 10.2019 15.851Z" stroke="#EDEDED" stroke-width="0.225093" stroke-miterlimit="10"/>
<path id="Vector_22" d="M5.57458 15.3303L2.91211 17.3336C4.25623 18.7056 5.98254 19.6997 7.91927 20.142L8.1576 16.8011C7.18709 16.5005 6.3089 15.9937 5.57243 15.3281L5.57458 15.3303Z" fill="#F4F4F4"/>
<path id="Vector_23" d="M8.19842 3.58687L7.96009 0.248047C5.70129 0.754775 3.72376 2.00871 2.30664 3.73932L5.25253 5.37974C6.05771 4.55309 7.06687 3.92826 8.19842 3.58472V3.58687Z" fill="#F4F4F4"/>
<path id="Vector_24" d="M3.29354 10.2019C3.29354 9.77888 3.33433 9.36662 3.40519 8.96511L0.293966 7.77344C0.105016 8.55071 0.00195312 9.36448 0.00195312 10.1997C0.00195312 11.3399 0.190902 12.4349 0.536594 13.4569L3.49107 11.8337C3.36439 11.3098 3.29568 10.7623 3.29568 10.1997L3.29354 10.2019Z" fill="#F4F4F4"/>
<path id="Vector_25" d="M14.4639 4.76351L17.1543 2.7366C15.8552 1.5256 14.2384 0.649564 12.4434 0.248047L12.2051 3.58687C13.036 3.83808 13.7983 4.24175 14.4639 4.76351Z" fill="#F4F4F4"/>
<path id="Vector_26" d="M17.1107 10.2015C17.1107 10.4312 17.0979 10.6588 17.0764 10.8843L20.2263 12.0888C20.34 11.4769 20.4045 10.8456 20.4045 10.2015C20.4045 8.87882 20.1511 7.61845 19.6916 6.45898L16.7715 8.06505C16.9905 8.73926 17.1107 9.45641 17.1107 10.2036V10.2015Z" fill="#F4F4F4"/>
<path id="Vector_27" d="M12.2443 16.8036L12.4827 20.1445C14.8982 19.5927 16.9874 18.1842 18.411 16.2539L15.4994 14.6328C14.6556 15.642 13.5305 16.4064 12.2422 16.8036H12.2443Z" fill="#F4F4F4"/>
<path id="Vector_28" d="M6.6029 14.5547L5.57227 15.3298C6.30874 15.9933 7.18692 16.5022 8.15744 16.8028L8.24976 15.5037C7.64427 15.2804 7.0903 14.9584 6.6029 14.5547Z" fill="#DEDEDE"/>
<path id="Vector_29" d="M12.1523 15.5046L12.2447 16.8036C13.5308 16.4064 14.6581 15.642 15.5019 14.6328L14.3768 14.0059C13.7713 14.6693 13.0112 15.1868 12.1523 15.5046Z" fill="#DEDEDE"/>
<path id="Vector_30" d="M16.772 8.0625L15.6426 8.68303C15.7778 9.16614 15.8509 9.67501 15.8509 10.2011C15.8509 10.2719 15.8487 10.3428 15.8466 10.4136L17.079 10.886C17.1005 10.6606 17.1134 10.433 17.1134 10.2032C17.1134 9.456 16.9931 8.73885 16.7741 8.06465L16.772 8.0625Z" fill="#DEDEDE"/>
<path id="Vector_31" d="M8.29213 4.88477L8.1998 3.58789C7.0661 3.93143 6.05694 4.55626 5.25391 5.38291L6.40263 6.02276C6.94586 5.52892 7.58786 5.13813 8.29213 4.88477Z" fill="#DEDEDE"/>
<path id="Vector_32" d="M13.4125 5.55468L14.4625 4.76453C13.7968 4.24277 13.0346 3.83911 12.2037 3.58789L12.1113 4.88477C12.5773 5.05225 13.0131 5.27985 13.4125 5.55468Z" fill="#DEDEDE"/>
<path id="Vector_33" d="M4.55335 10.2014C4.55335 9.93731 4.57267 9.67965 4.60703 9.42629L3.40462 8.9668C3.33162 9.36831 3.29297 9.78057 3.29297 10.2036C3.29297 10.7661 3.36168 11.3136 3.48836 11.8375L4.64353 11.202C4.58555 10.8778 4.55335 10.545 4.55335 10.2036V10.2014Z" fill="#DEDEDE"/>
<path id="Vector_34" d="M10.2006 3.29354C10.8963 3.29354 11.5683 3.3966 12.2039 3.58984L12.4422 0.251023C11.7208 0.0899863 10.9714 0.00195312 10.2006 0.00195312C9.42978 0.00195312 8.68043 0.0899863 7.95898 0.251023L8.19732 3.58984C8.83073 3.39875 9.50279 3.29354 10.2006 3.29354Z" fill="#BA2424"/>
<path id="Vector_35" d="M10.2006 4.55335C10.8705 4.55335 11.5146 4.67144 12.1115 4.88616L12.2039 3.58928C11.5704 3.39818 10.8984 3.29297 10.2006 3.29297C9.50273 3.29297 8.83282 3.39603 8.19727 3.58928L8.28959 4.88616C8.8865 4.67144 9.5285 4.55335 10.2006 4.55335Z" fill="#E10A0A"/>
<path id="Vector_36" d="M10.2004 17.1098C9.48968 17.1098 8.8026 17.0024 8.1563 16.8027L7.91797 20.1437C8.65229 20.3112 9.41453 20.4035 10.2004 20.4035C10.9862 20.4035 11.7485 20.3112 12.4828 20.1437L12.2445 16.8027C11.5982 17.0024 10.9132 17.1098 10.2004 17.1098Z" fill="#BA2424"/>
<path id="Vector_37" d="M10.2001 15.8496C9.5152 15.8496 8.85817 15.7272 8.25053 15.5039L8.1582 16.8029C8.8045 17.0026 9.48944 17.11 10.2023 17.11C10.9151 17.11 11.6001 17.0026 12.2464 16.8029L12.1541 15.5039C11.5464 15.7272 10.8894 15.8496 10.2044 15.8496H10.2001Z" fill="#E10A0A"/>
<path id="Vector_38" d="M17.076 10.8828C16.9364 12.3021 16.3674 13.5947 15.5 14.6296L18.4115 16.2507C19.3048 15.0397 19.936 13.6247 20.2237 12.0874L17.0739 10.8828H17.076Z" fill="#BA2424"/>
<path id="Vector_39" d="M14.375 14.0062L15.5001 14.6332C16.3676 13.5983 16.9366 12.3057 17.0761 10.8864L15.8437 10.4141C15.7921 11.7968 15.2467 13.0508 14.375 14.0062Z" fill="#E10A0A"/>
<path id="Vector_40" d="M5.25094 5.38261L2.30504 3.74219C1.356 4.90165 0.658179 6.27368 0.291016 7.77454L3.40224 8.96621C3.65131 7.58559 4.31048 6.34883 5.24879 5.38476L5.25094 5.38261Z" fill="#BA2424"/>
<path id="Vector_41" d="M6.39957 6.02266L5.25085 5.38281C4.31254 6.34688 3.65337 7.58364 3.4043 8.96426L4.6067 9.42375C4.79136 8.08178 5.44624 6.89011 6.39957 6.02052V6.02266Z" fill="#E10A0A"/>
<path id="Vector_42" d="M16.7709 8.06322L19.691 6.45715C19.1285 5.03144 18.2567 3.76462 17.1552 2.73828L14.4648 4.76519C15.532 5.60258 16.3457 6.74487 16.773 8.06322H16.7709Z" fill="#BA2424"/>
<path id="Vector_43" d="M15.6409 8.68222L16.7703 8.0617C16.3408 6.74335 15.5271 5.60106 14.4621 4.76367L13.4121 5.55382C14.4814 6.29459 15.2823 7.39608 15.6409 8.68222Z" fill="#E10A0A"/>
<path id="Vector_44" d="M3.48964 11.834L0.535156 13.4572C1.03115 14.928 1.85136 16.2485 2.91205 17.3328L5.57452 15.3295C4.56106 14.4149 3.82244 13.2039 3.48964 11.834Z" fill="#BA2424"/>
<path id="Vector_45" d="M4.6415 11.1992L3.48633 11.8348C3.81914 13.2047 4.55776 14.4157 5.57121 15.3303L6.60184 14.5552C5.59268 13.72 4.88198 12.5433 4.6415 11.2014V11.1992Z" fill="#E10A0A"/>
</g>
</g>
<defs>
<clipPath id="clip0_453_53723">
<rect width="120" height="20.4022" fill="white"/>
</clipPath>
</defs>
</svg>
