<svg width="46" height="46" viewBox="0 0 46 46" fill="none" xmlns="http://www.w3.org/2000/svg">
<g id="Center Logo">
<g id="Group">
<path id="Vector" d="M23.0005 5.72266H22.9957C13.456 5.72266 5.72266 13.456 5.72266 22.9957V23.0005C5.72266 32.5401 13.456 40.2735 22.9957 40.2735H23.0005C32.5401 40.2735 40.2735 32.5401 40.2735 23.0005V22.9957C40.2735 13.456 32.5401 5.72266 23.0005 5.72266Z" fill="white"/>
<g id="Group_2">
<path id="Vector_2" d="M24.4958 19.559C24.612 19.1475 24.9364 18.8038 25.343 18.6731C25.619 18.5811 25.8998 18.5811 26.1515 18.6537C25.8659 18.3536 25.7158 17.9179 25.8078 17.4532C25.9143 16.9303 26.35 16.5043 26.8728 16.4123C27.7248 16.2623 28.4607 16.911 28.4607 17.7291C28.4607 18.0873 28.3155 18.4117 28.0879 18.6489C28.3348 18.5763 28.6204 18.5763 28.8964 18.6683C29.303 18.799 29.6274 19.1379 29.7484 19.5493C30.0002 20.4595 29.3272 21.2776 28.4607 21.2776C27.8507 21.2776 27.3279 20.8661 27.1681 20.3046C27.1681 21.4519 27.8217 22.1345 28.1847 22.425C28.209 22.4443 28.1944 22.483 28.1654 22.483H28.1557C27.8217 22.362 27.4731 22.2991 27.1245 22.2991C26.776 22.2991 26.4226 22.362 26.0886 22.483H26.0789C26.045 22.483 26.0305 22.4443 26.0595 22.425C26.1709 22.3378 26.3064 22.2119 26.4468 22.0473C26.7615 21.6746 27.0761 21.1033 27.0761 20.3094C26.9115 20.8661 26.4032 21.2776 25.7884 21.2776C24.9219 21.2776 24.2489 20.4546 24.5007 19.5542L24.4958 19.559Z" fill="white"/>
<g id="Group_3" opacity="0.2">
<path id="Vector_3" d="M25.1048 19.9026C25.221 19.4911 25.5453 19.1474 25.952 19.0167C26.2279 18.9247 26.5087 18.9247 26.7604 18.9973C26.4748 18.6972 26.3247 18.2615 26.4167 17.7967C26.5232 17.2739 26.9589 16.8479 27.4818 16.7559C27.6851 16.722 27.8836 16.7317 28.0627 16.7801C27.7674 16.4896 27.3365 16.3299 26.8718 16.4122C26.3441 16.509 25.9133 16.935 25.8067 17.453C25.7148 17.9178 25.8648 18.3535 26.1505 18.6536C25.9036 18.581 25.6179 18.581 25.342 18.673C24.9354 18.8037 24.611 19.1474 24.4948 19.5589C24.277 20.3432 24.7514 21.0645 25.4485 21.2388C25.1193 20.9144 24.9596 20.4206 25.1048 19.9026Z" fill="#FEFDFE"/>
</g>
<path id="Vector_4" d="M20.6415 16.412C20.0024 16.412 19.4457 16.7557 19.1553 17.2737C18.8696 16.7508 18.3177 16.3974 17.6787 16.3926C16.7444 16.3878 15.9795 17.1381 15.9747 18.0773C15.9601 20.309 19.1214 22.289 19.1214 22.289C19.1214 22.289 22.3068 20.3478 22.3213 18.116C22.3262 17.1817 21.5758 16.4168 20.6366 16.412H20.6415Z" fill="#E10A0A"/>
<g id="Group_4" opacity="0.2">
<path id="Vector_5" d="M16.5556 18.4065C16.5604 17.4722 17.3253 16.717 18.2597 16.7218C18.4388 16.7218 18.6131 16.7557 18.7776 16.8089C18.4823 16.5524 18.0999 16.3926 17.6787 16.3926C16.7444 16.3878 15.9795 17.1381 15.9747 18.0773C15.9601 20.309 19.1214 22.289 19.1214 22.289C19.1214 22.289 19.1407 22.2745 19.1795 22.2552C18.2839 21.5822 16.5459 20.0621 16.5556 18.4065Z" fill="white"/>
</g>
<path id="Vector_6" d="M22.0064 27.5425C22.0016 28.3849 21.3141 29.0626 20.4718 29.0578C19.9828 29.0578 19.5423 28.8206 19.2664 28.4575C19.4406 29.4305 20.0264 30.0357 20.375 30.3213C20.404 30.3407 20.3895 30.3891 20.3508 30.3891C20.3459 30.3891 20.3411 30.3891 20.3362 30.3891C19.9538 30.2535 19.552 30.1809 19.1453 30.1809C18.7387 30.1809 18.3417 30.2535 17.9544 30.3891C17.9496 30.3891 17.9447 30.3891 17.9399 30.3891C17.9012 30.3891 17.8866 30.3407 17.9157 30.3213C18.0464 30.2196 18.2062 30.0744 18.3611 29.8856C18.6467 29.5467 18.9323 29.0626 19.0388 28.4236C18.7629 28.8012 18.3078 29.0433 17.8043 29.0433C16.962 29.0384 16.2842 28.351 16.2891 27.5086C16.3036 25.4996 19.1695 23.752 19.1695 23.752C19.1695 23.752 22.0161 25.5383 22.0016 27.5425H22.0064Z" fill="#464646"/>
<g id="Group_5" opacity="0.2">
<path id="Vector_7" d="M16.8739 27.8378C16.8836 25.9982 19.2896 24.3813 19.6963 24.1199C19.3864 23.8875 19.1734 23.752 19.1734 23.752C19.1734 23.752 16.3075 25.4996 16.293 27.5086C16.293 28.1961 16.7432 28.777 17.3725 28.9706C17.0675 28.6899 16.8739 28.2881 16.8739 27.8378Z" fill="white"/>
</g>
<path id="Vector_8" d="M27.2068 23.2578C27.2068 23.2578 26.4371 25.0345 24.3457 26.8063C26.4128 28.5975 27.1535 30.3839 27.1535 30.3839C27.1535 30.3839 27.9233 28.6072 30.0146 26.8354C27.9475 25.0442 27.2068 23.2578 27.2068 23.2578Z" fill="#E10A0A"/>
<path id="Vector_9" opacity="0.11" d="M29.743 19.5548C29.622 19.1433 29.2976 18.8045 28.891 18.6737C28.615 18.5818 28.3343 18.5818 28.0825 18.6544C28.31 18.4172 28.4553 18.0928 28.4553 17.7346C28.4553 16.9939 27.8598 16.3984 27.1191 16.3984V22.3094C27.4677 22.3094 27.8211 22.3723 28.1503 22.4934H28.16C28.1939 22.4934 28.2084 22.4546 28.1793 22.4304C27.8114 22.1351 27.1627 21.4525 27.1627 20.31C27.3225 20.8764 27.8405 21.2831 28.4553 21.2831C29.3218 21.2831 29.9947 20.4601 29.743 19.5548Z" fill="black"/>
<g id="Group_6" opacity="0.11">
<g id="Group_7">
<path id="Vector_10" d="M22.3281 18.1162C22.3329 17.1818 21.5826 16.417 20.6434 16.4121C20.0044 16.4121 19.4477 16.7558 19.1572 17.2738C19.1572 17.2738 19.1572 17.269 19.1523 17.2641V22.2698C19.4525 22.081 22.3136 20.2269 22.3281 18.1162Z" fill="black"/>
<path id="Vector_11" d="M20.3423 30.3832C20.3423 30.3832 20.352 30.3832 20.3568 30.3832C20.3956 30.3832 20.4101 30.3348 20.381 30.3154C20.0276 30.0298 19.4467 29.4247 19.2724 28.4516C19.5484 28.8147 19.9841 29.0519 20.4779 29.0519C21.3202 29.0616 22.0076 28.379 22.0125 27.5367C22.027 25.5276 19.1805 23.7461 19.1805 23.7461C19.1805 23.7461 19.1708 23.7509 19.1562 23.7606V30.1702C19.5581 30.1702 19.9599 30.2428 20.3472 30.3784L20.3423 30.3832Z" fill="black"/>
</g>
</g>
<g id="Group_8" opacity="0.11">
<path id="Vector_12" d="M30.0137 26.8354C27.9465 25.0442 27.2058 23.2578 27.2058 23.2578C27.2058 23.2578 27.1962 23.282 27.1816 23.3159V30.3258C27.3269 30.0208 28.1353 28.4281 30.0137 26.8354Z" fill="black"/>
</g>
<g id="Group_9" opacity="0.2">
<path id="Vector_13" d="M27.1826 29.6524C26.742 28.9795 26.0352 28.0597 24.975 27.1398C26.0207 26.2539 26.7324 25.368 27.1826 24.7048V23.3202C27.1826 23.3202 27.1826 23.3154 27.1826 23.3105C27.0519 23.5913 26.2483 25.2034 24.3457 26.8107C26.4128 28.6019 27.1535 30.3882 27.1535 30.3882C27.1535 30.3882 27.2213 30.2285 27.3714 29.9622C27.2746 30.1365 27.2116 30.2672 27.1777 30.3301V29.6524H27.1826Z" fill="white"/>
</g>
</g>
</g>
<g id="Group_10">
<path id="Vector_14" d="M22.9947 35.7316C30.0291 35.7316 35.7316 30.0291 35.7316 22.9947C35.7316 15.9603 30.0291 10.2578 22.9947 10.2578C15.9603 10.2578 10.2578 15.9603 10.2578 22.9947C10.2578 30.0291 15.9603 35.7316 22.9947 35.7316Z" stroke="#EDEDED" stroke-width="0.225093" stroke-miterlimit="10"/>
<path id="Vector_15" d="M12.5635 34.5595L6.56055 39.0763C9.59107 42.1697 13.4833 44.4111 17.85 45.4084L18.3873 37.8757C16.1992 37.1979 14.2191 36.0554 12.5587 34.5547L12.5635 34.5595Z" fill="white"/>
<path id="Vector_16" d="M18.4793 8.08453L17.9419 0.556641C12.8491 1.69914 8.39043 4.52633 5.19531 8.42825L11.8373 12.1268C13.6527 10.263 15.928 8.85426 18.4793 8.07969V8.08453Z" fill="white"/>
<path id="Vector_17" d="M7.42139 22.9948C7.42139 22.0411 7.51337 21.1116 7.67312 20.2063L0.658388 17.5195C0.232372 19.272 0 21.1068 0 22.99C0 25.5606 0.426016 28.0295 1.20543 30.3339L7.86677 26.674C7.58114 25.4928 7.42623 24.2583 7.42623 22.99L7.42139 22.9948Z" fill="white"/>
<path id="Vector_18" d="M32.6045 10.7374L38.6704 6.16746C35.7416 3.43709 32.0962 1.46192 28.0491 0.556641L27.5117 8.08453C29.3852 8.65094 31.1038 9.56106 32.6045 10.7374Z" fill="white"/>
<path id="Vector_19" d="M38.5735 22.9947C38.5735 23.5126 38.5444 24.0258 38.496 24.5341L45.5979 27.25C45.8545 25.8703 45.9997 24.447 45.9997 22.9947C45.9997 20.0125 45.4285 17.1708 44.3925 14.5566L37.8086 18.1778C38.3024 19.6979 38.5735 21.3148 38.5735 22.9995V22.9947Z" fill="white"/>
<path id="Vector_20" d="M27.6044 37.8807L28.1418 45.4134C33.588 44.1692 38.2984 40.9935 41.5081 36.6413L34.9435 32.9863C33.041 35.2616 30.5043 36.9851 27.5996 37.8807H27.6044Z" fill="white"/>
<path id="Vector_21" d="M14.8823 32.8125L12.5586 34.5601C14.2191 36.056 16.1991 37.2034 18.3873 37.8811L18.5954 34.9523C17.2302 34.4488 15.9812 33.7226 14.8823 32.8125Z" fill="#DEDEDE"/>
<path id="Vector_22" d="M27.3965 34.9513L27.6047 37.8802C30.5045 36.9846 33.046 35.2612 34.9486 32.9859L32.4118 31.5723C31.0467 33.0682 29.3329 34.2349 27.3965 34.9513Z" fill="#DEDEDE"/>
<path id="Vector_23" d="M37.8081 18.1738L35.2617 19.5729C35.5667 20.6621 35.7313 21.8095 35.7313 22.9955C35.7313 23.1553 35.7265 23.3151 35.7216 23.4748L38.5004 24.5399C38.5488 24.0315 38.5779 23.5184 38.5779 23.0004C38.5779 21.3157 38.3068 19.6988 37.813 18.1787L37.8081 18.1738Z" fill="#DEDEDE"/>
<path id="Vector_24" d="M18.6919 11.008L18.4838 8.08398C15.9277 8.85856 13.6524 10.2673 11.8418 12.1311L14.4318 13.5738C15.6566 12.4603 17.1041 11.5792 18.6919 11.008Z" fill="#DEDEDE"/>
<path id="Vector_25" d="M30.2384 12.5184L32.6057 10.7369C31.1049 9.56052 29.3864 8.65039 27.5129 8.08398L27.3047 11.008C28.3552 11.3856 29.3379 11.8988 30.2384 12.5184Z" fill="#DEDEDE"/>
<path id="Vector_26" d="M10.2636 22.9946C10.2636 22.3991 10.3072 21.8182 10.3846 21.2469L7.67361 20.2109C7.50901 21.1162 7.42188 22.0457 7.42188 22.9994C7.42188 24.2678 7.57679 25.5022 7.86241 26.6835L10.4669 25.2505C10.3362 24.5195 10.2636 23.7691 10.2636 22.9994V22.9946Z" fill="#DEDEDE"/>
<path id="Vector_27" d="M22.9955 7.42139C24.564 7.42139 26.0793 7.65376 27.5122 8.08945L28.0496 0.561566C26.423 0.198485 24.7334 0 22.9955 0C21.2575 0 19.568 0.198485 17.9414 0.561566L18.4788 8.08945C19.9069 7.6586 21.4221 7.42139 22.9955 7.42139Z" fill="#BA2424"/>
<path id="Vector_28" d="M22.9952 10.2636C24.5057 10.2636 25.958 10.5299 27.3038 11.014L27.512 8.08994C26.0839 7.65909 24.5686 7.42188 22.9952 7.42188C21.4219 7.42188 19.9115 7.65425 18.4785 8.08994L18.6867 11.014C20.0325 10.5299 21.48 10.2636 22.9952 10.2636Z" fill="#E10A0A"/>
<path id="Vector_29" d="M22.9957 38.5731C21.3933 38.5731 19.8441 38.3311 18.387 37.8809L17.8496 45.4136C19.5053 45.7912 21.2238 45.9994 22.9957 45.9994C24.7675 45.9994 26.4861 45.7912 28.1418 45.4136L27.6044 37.8809C26.1472 38.3311 24.6029 38.5731 22.9957 38.5731Z" fill="#BA2424"/>
<path id="Vector_30" d="M22.9945 35.7325C21.4502 35.7325 19.9688 35.4566 18.5988 34.9531L18.3906 37.882C19.8478 38.3322 21.3921 38.5743 22.9993 38.5743C24.6066 38.5743 26.1509 38.3322 27.6081 37.882L27.3999 34.9531C26.0299 35.4566 24.5485 35.7325 23.0042 35.7325H22.9945Z" fill="#E10A0A"/>
<path id="Vector_31" d="M38.4967 24.5352C38.182 27.7351 36.8992 30.6494 34.9434 32.9829L41.5079 36.6379C43.5218 33.9075 44.945 30.7172 45.5938 27.251L38.4919 24.5352H38.4967Z" fill="#BA2424"/>
<path id="Vector_32" d="M32.4062 31.5737L34.943 32.9873C36.8988 30.6539 38.1817 27.7396 38.4963 24.5396L35.7176 23.4746C35.6014 26.5923 34.3717 29.4195 32.4062 31.5737Z" fill="#E10A0A"/>
<path id="Vector_33" d="M11.8372 12.1322L5.19524 8.43359C3.05548 11.0478 1.48212 14.1412 0.654297 17.5252L7.66903 20.212C8.2306 17.0991 9.71681 14.3107 11.8324 12.137L11.8372 12.1322Z" fill="#BA2424"/>
<path id="Vector_34" d="M14.4271 13.5735L11.8372 12.1309C9.72161 14.3045 8.23539 17.093 7.67383 20.2058L10.3848 21.2418C10.8012 18.2161 12.2777 15.5293 14.4271 13.5687V13.5735Z" fill="#E10A0A"/>
<path id="Vector_35" d="M37.8087 18.1739L44.3926 14.5527C43.1242 11.3382 41.1587 8.48201 38.6753 6.16797L32.6094 10.738C35.0154 12.626 36.8502 15.2014 37.8135 18.1739H37.8087Z" fill="#BA2424"/>
<path id="Vector_36" d="M35.2633 19.5713L37.8097 18.1722C36.8415 15.1998 35.0067 12.6244 32.6056 10.7363L30.2383 12.5178C32.6491 14.188 34.4549 16.6715 35.2633 19.5713Z" fill="#E10A0A"/>
<path id="Vector_37" d="M7.86251 26.6797L1.20117 30.3395C2.31946 33.6557 4.16876 36.633 6.56025 39.0777L12.5632 34.561C10.2782 32.4987 8.61287 29.7683 7.86251 26.6797Z" fill="#BA2424"/>
<path id="Vector_38" d="M10.4619 25.2461L7.85742 26.6791C8.60779 29.7677 10.2731 32.498 12.5581 34.5603L14.8818 32.8127C12.6065 30.9295 11.0041 28.2766 10.4619 25.2509V25.2461Z" fill="#E10A0A"/>
</g>
</g>
</svg>
