<svg width="24" height="25" viewBox="0 0 24 25" fill="none" xmlns="http://www.w3.org/2000/svg">
<g id="Mobile Menu">
<path id="Vector" fill-rule="evenodd" clip-rule="evenodd" d="M13.2006 1.75H13.2326C14.0456 1.75 14.7016 1.75 15.2326 1.793C15.7786 1.838 16.2586 1.933 16.7026 2.159C17.4087 2.51837 17.9828 3.09214 18.3426 3.798C18.5686 4.242 18.6626 4.722 18.7076 5.268C18.7506 5.799 18.7506 6.455 18.7506 7.268V8C18.7506 8.19891 18.6716 8.38968 18.531 8.53033C18.3903 8.67098 18.1995 8.75 18.0006 8.75C17.8017 8.75 17.6109 8.67098 17.4703 8.53033C17.3296 8.38968 17.2506 8.19891 17.2506 8V7.3C17.2506 6.448 17.2506 5.853 17.2126 5.39C17.1756 4.937 17.1056 4.676 17.0056 4.479C16.7901 4.05541 16.446 3.71095 16.0226 3.495C15.8246 3.395 15.5636 3.325 15.1096 3.288C14.6476 3.251 14.0536 3.25 13.2006 3.25H6.80063C5.94863 3.25 5.35363 3.25 4.89063 3.288C4.43763 3.325 4.17663 3.395 3.97963 3.495C3.55589 3.71078 3.21141 4.05526 2.99563 4.479C2.89563 4.676 2.82563 4.937 2.78863 5.391C2.75163 5.853 2.75063 6.448 2.75063 7.3V14.286C2.75077 14.3713 2.75144 14.4567 2.75263 14.542V14.559C2.76264 14.688 2.80587 14.8123 2.87813 14.9197C2.95039 15.0271 3.0492 15.1139 3.16497 15.1718C3.28074 15.2297 3.40951 15.2566 3.53878 15.25C3.66804 15.2434 3.79338 15.2034 3.90263 15.134L3.90563 15.132L3.91563 15.124L3.95863 15.094L4.12163 14.971L4.12963 14.966C4.21663 14.901 4.26963 14.86 4.32363 14.822C5.26265 14.1511 6.38184 13.7782 7.53563 13.752C7.60163 13.75 7.66863 13.75 7.77663 13.75H8.25063V13.67C8.25063 13.135 8.25063 12.69 8.28063 12.325C8.31063 11.945 8.37863 11.589 8.55063 11.252C8.8143 10.7344 9.23507 10.3137 9.75263 10.05C10.0896 9.878 10.4456 9.81 10.8256 9.78C11.1906 9.75 11.6356 9.75 12.1706 9.75H18.8306C19.3656 9.75 19.8106 9.75 20.1756 9.78C20.5556 9.81 20.9116 9.878 21.2486 10.05C21.766 10.3134 22.1868 10.7338 22.4506 11.251C22.6226 11.589 22.6906 11.945 22.7206 12.325C22.7506 12.69 22.7506 13.135 22.7506 13.67V20.864C22.7506 22.516 20.7706 23.364 19.5746 22.224C19.0136 21.6904 18.2689 21.3928 17.4946 21.393H12.1706C11.6356 21.393 11.1906 21.393 10.8256 21.363C10.4456 21.333 10.0896 21.265 9.75263 21.093C9.23507 20.8293 8.8143 20.4086 8.55063 19.891C8.37863 19.554 8.31063 19.197 8.28063 18.818C8.25063 18.453 8.25063 18.008 8.25063 17.473V15.25H7.78663L7.56963 15.251C6.64268 15.2715 5.74787 15.5946 5.02163 16.171L4.99363 16.193C4.87563 16.281 4.78063 16.353 4.70363 16.401C3.27363 17.307 1.39163 16.367 1.25763 14.678C1.25109 14.5595 1.24875 14.4407 1.25063 14.322V7.268C1.25063 6.455 1.25063 5.799 1.29363 5.268C1.33863 4.722 1.43363 4.242 1.65963 3.798C2.019 3.09192 2.59277 2.5178 3.29863 2.158C3.74263 1.932 4.22263 1.838 4.76863 1.793C5.29963 1.75 5.95563 1.75 6.76863 1.75H13.2006ZM9.75063 14.501V17.443C9.75063 18.015 9.75063 18.399 9.77563 18.695C9.79863 18.983 9.84063 19.12 9.88663 19.21C10.0066 19.445 10.1976 19.637 10.4326 19.757C10.5236 19.803 10.6606 19.845 10.9476 19.868C11.2436 19.892 11.6276 19.893 12.2006 19.893H17.4946C18.6546 19.893 19.7686 20.339 20.6086 21.139C20.6625 21.1903 20.7302 21.2246 20.8033 21.2378C20.8765 21.2509 20.9519 21.2423 21.0202 21.2131C21.0886 21.1838 21.1468 21.1351 21.1878 21.0731C21.2287 21.011 21.2506 20.9383 21.2506 20.864V13.7C21.2506 13.128 21.2506 12.743 21.2256 12.448C21.2026 12.16 21.1606 12.023 21.1146 11.932C20.9945 11.6968 20.8031 11.5056 20.5676 11.386C20.4776 11.34 20.3406 11.298 20.0526 11.275C19.7576 11.251 19.3726 11.25 18.8006 11.25H12.2006C11.6286 11.25 11.2436 11.25 10.9486 11.275C10.6606 11.298 10.5236 11.34 10.4326 11.386C10.1976 11.5058 10.0064 11.6969 9.88663 11.932C9.84063 12.023 9.79863 12.16 9.77563 12.447C9.75163 12.743 9.75063 13.127 9.75063 13.7V14.501Z" fill="#FFA3A3"/>
</g>
</svg>
