<svg width="25" height="25" viewBox="0 0 25 25" fill="none" xmlns="http://www.w3.org/2000/svg">
<g id="Mobile Menu">
<path id="Vector" fill-rule="evenodd" clip-rule="evenodd" d="M2.75 6.5C2.75 6.30109 2.82902 6.11032 2.96967 5.96967C3.11032 5.82902 3.30109 5.75 3.5 5.75H21.5C21.6989 5.75 21.8897 5.82902 22.0303 5.96967C22.171 6.11032 22.25 6.30109 22.25 6.5C22.25 6.69891 22.171 6.88968 22.0303 7.03033C21.8897 7.17098 21.6989 7.25 21.5 7.25H3.5C3.30109 7.25 3.11032 7.17098 2.96967 7.03033C2.82902 6.88968 2.75 6.69891 2.75 6.5ZM2.75 12.5C2.75 12.3011 2.82902 12.1103 2.96967 11.9697C3.11032 11.829 3.30109 11.75 3.5 11.75H21.5C21.6989 11.75 21.8897 11.829 22.0303 11.9697C22.171 12.1103 22.25 12.3011 22.25 12.5C22.25 12.6989 22.171 12.8897 22.0303 13.0303C21.8897 13.171 21.6989 13.25 21.5 13.25H3.5C3.30109 13.25 3.11032 13.171 2.96967 13.0303C2.82902 12.8897 2.75 12.6989 2.75 12.5ZM3.5 17.75C3.30109 17.75 3.11032 17.829 2.96967 17.9697C2.82902 18.1103 2.75 18.3011 2.75 18.5C2.75 18.6989 2.82902 18.8897 2.96967 19.0303C3.11032 19.171 3.30109 19.25 3.5 19.25H21.5C21.6989 19.25 21.8897 19.171 22.0303 19.0303C22.171 18.8897 22.25 18.6989 22.25 18.5C22.25 18.3011 22.171 18.1103 22.0303 17.9697C21.8897 17.829 21.6989 17.75 21.5 17.75H3.5Z" fill="#FFA3A3"/>
</g>
</svg>
