<svg width="25" height="25" viewBox="0 0 25 25" fill="none" xmlns="http://www.w3.org/2000/svg">
<g id="Mobile Menu">
<path id="Vector" fill-rule="evenodd" clip-rule="evenodd" d="M11.3215 1.48774C11.6897 1.3132 12.0921 1.22266 12.4995 1.22266C12.907 1.22266 13.3094 1.3132 13.6775 1.48774C14.1945 1.73274 14.5605 2.19674 14.8845 2.72074C15.2115 3.24674 15.5695 3.96274 16.0145 4.85474L16.0325 4.88974L16.3925 5.60774C16.6975 6.21974 16.7865 6.37974 16.8975 6.49674C17.0135 6.61674 17.1515 6.71374 17.3045 6.77974C17.4525 6.84374 17.6335 6.87174 18.3125 6.94774L18.6385 6.98374L18.6785 6.98774C19.7485 7.10774 20.6045 7.20174 21.2525 7.33374C21.8905 7.46374 22.4865 7.65574 22.9025 8.08174C23.1967 8.38187 23.4181 8.74542 23.5499 9.14448C23.6816 9.54353 23.7202 9.96747 23.6625 10.3837C23.5815 10.9737 23.2175 11.4827 22.7815 11.9667C22.3395 12.4587 21.7085 13.0437 20.9195 13.7767L20.8895 13.8037L20.5465 14.1237C19.9475 14.6797 19.7945 14.8367 19.7085 15.0037C19.6198 15.1765 19.5726 15.3675 19.5705 15.5617C19.5685 15.7497 19.6325 15.9637 19.9065 16.7447L19.9195 16.7817C20.3235 17.9337 20.6435 18.8457 20.8255 19.5557C21.0015 20.2457 21.1005 20.9227 20.8705 21.5087C20.7107 21.9152 20.4564 22.2778 20.1286 22.5665C19.8008 22.8552 19.409 23.0616 18.9855 23.1687C18.3765 23.3237 17.7235 23.1437 17.0675 22.8857C16.3935 22.6197 15.5415 22.1937 14.4665 21.6557L14.4315 21.6387L13.5955 21.2207C13.0315 20.9387 12.8775 20.8697 12.7295 20.8407C12.5775 20.8124 12.4216 20.8124 12.2695 20.8407C12.1215 20.8697 11.9675 20.9387 11.4035 21.2207L10.5675 21.6387L10.5325 21.6557C9.45753 22.1937 8.60553 22.6197 7.93253 22.8857C7.27553 23.1437 6.62253 23.3237 6.01253 23.1697C5.58916 23.0624 5.19745 22.8557 4.86982 22.5669C4.5422 22.278 4.28809 21.9153 4.12853 21.5087C3.89853 20.9227 3.99753 20.2447 4.17353 19.5557C4.35553 18.8457 4.67553 17.9337 5.07953 16.7817L5.09253 16.7447C5.36653 15.9647 5.43053 15.7497 5.42853 15.5617C5.4265 15.3675 5.37925 15.1765 5.29053 15.0037C5.20453 14.8367 5.05053 14.6797 4.45353 14.1237L4.10853 13.8037L4.07953 13.7777C3.28953 13.0447 2.65953 12.4577 2.21753 11.9677C1.78153 11.4827 1.41753 10.9737 1.33653 10.3837C1.2789 9.96747 1.31744 9.54353 1.44918 9.14448C1.58093 8.74542 1.80238 8.38187 2.09653 8.08174C2.51253 7.65574 3.10853 7.46374 3.74653 7.33374C4.39453 7.20174 5.25053 7.10674 6.32153 6.98774L6.36053 6.98374L6.68653 6.94774C7.36653 6.87174 7.54653 6.84374 7.69553 6.77974C7.84837 6.71341 7.98641 6.61719 8.10153 6.49674C8.21253 6.37974 8.30153 6.21974 8.60753 5.60774L8.96653 4.88974L8.98353 4.85474C9.42953 3.96274 9.78753 3.24674 10.1135 2.72074C10.4385 2.19674 10.8045 1.73274 11.3215 1.48774ZM13.0355 2.84374C12.868 2.76423 12.6849 2.72299 12.4995 2.72299C12.3141 2.72299 12.131 2.76423 11.9635 2.84374C11.8565 2.89374 11.6815 3.03874 11.3895 3.51074C11.1035 3.97174 10.7755 4.62574 10.3085 5.56074L9.94853 6.27874L9.90653 6.36474C9.66353 6.84974 9.47353 7.23174 9.18653 7.53274C8.93307 7.79796 8.6291 8.00978 8.29253 8.15574C7.91053 8.32174 7.48653 8.36874 6.94653 8.42774L6.85253 8.43774L6.52553 8.47474C5.40653 8.59874 4.61953 8.68774 4.04553 8.80474C3.45553 8.92474 3.24953 9.04774 3.16753 9.13174C3.03378 9.26807 2.93305 9.43324 2.87307 9.61456C2.81309 9.79589 2.79546 9.98854 2.82153 10.1777C2.83853 10.2947 2.93053 10.5157 3.33253 10.9637C3.72453 11.3987 4.30453 11.9387 5.12953 12.7047L5.47353 13.0247L5.55753 13.1027C6.03153 13.5417 6.40253 13.8857 6.62453 14.3187C6.81953 14.6987 6.92453 15.1187 6.92853 15.5457C6.93353 16.0327 6.76353 16.5157 6.54753 17.1307L6.50753 17.2407C6.08753 18.4387 5.79053 19.2887 5.62753 19.9277C5.45653 20.5947 5.48353 20.8547 5.52453 20.9607C5.67153 21.3357 5.99053 21.6167 6.38153 21.7157C6.49353 21.7437 6.75153 21.7387 7.38153 21.4897C7.98553 21.2517 8.77853 20.8557 9.89753 20.2967L10.7325 19.8787L10.8115 19.8387C11.2595 19.6147 11.6115 19.4387 11.9915 19.3677C12.3269 19.3048 12.6711 19.3048 13.0065 19.3677C13.3865 19.4387 13.7395 19.6147 14.1875 19.8397L14.2665 19.8797L15.1015 20.2967C16.2195 20.8567 17.0135 21.2517 17.6175 21.4897C18.2475 21.7377 18.5065 21.7437 18.6175 21.7157C19.0075 21.6157 19.3275 21.3357 19.4745 20.9607C19.5155 20.8547 19.5425 20.5947 19.3725 19.9277C19.2085 19.2887 18.9105 18.4377 18.4905 17.2407C18.4776 17.2041 18.4646 17.1674 18.4515 17.1307C18.2355 16.5147 18.0655 16.0327 18.0715 15.5457C18.0755 15.1187 18.1795 14.6987 18.3745 14.3187C18.5965 13.8857 18.9675 13.5417 19.4415 13.1027L19.5255 13.0247L19.8695 12.7047C20.6945 11.9387 21.2745 11.3987 21.6665 10.9647C22.0685 10.5157 22.1605 10.2947 22.1765 10.1777C22.2027 9.98862 22.1853 9.79601 22.1254 9.61469C22.0656 9.43337 21.9651 9.26816 21.8315 9.13174C21.7495 9.04774 21.5435 8.92374 20.9525 8.80374C20.3795 8.68674 19.5925 8.59874 18.4725 8.47374L18.1465 8.43874L18.0525 8.42874C17.5125 8.36874 17.0885 8.32174 16.7065 8.15574C16.3703 8.00967 16.0667 7.79785 15.8135 7.53274C15.5255 7.23174 15.3345 6.84974 15.0935 6.36474C15.0792 6.33606 15.0649 6.30739 15.0505 6.27874L14.6905 5.56074C14.2235 4.62574 13.8955 3.97174 13.6105 3.51074C13.3175 3.03874 13.1425 2.89374 13.0355 2.84374Z" fill="#FFA3A3"/>
</g>
</svg>
