<svg width="32" height="32" viewBox="0 0 32 32" fill="none" xmlns="http://www.w3.org/2000/svg">
<g id="sport-football" clip-path="url(#clip0_413_55738)">
<path id="Vector" d="M31.0807 14.0969C30.9187 12.6773 30.5411 11.2906 29.9607 9.98494C29.7068 9.36339 29.4017 8.764 29.0487 8.19294C28.416 7.12659 27.6498 6.14533 26.7687 5.27294C24.9203 3.41808 22.6252 2.07077 20.1047 1.36094C19.4369 1.16772 18.7547 1.0286 18.0647 0.944938C16.6979 0.755333 15.3115 0.755333 13.9447 0.944938C13.2571 1.02813 12.5776 1.16726 11.9127 1.36094C9.38683 2.06926 7.08618 3.41659 5.23266 5.27294C4.32986 6.16477 3.55453 7.17699 2.92866 8.28094C2.56339 8.85321 2.25269 9.45854 2.00066 10.0889C1.43342 11.406 1.06409 12.7998 0.904661 14.2249C0.806929 14.9378 0.772129 15.6579 0.800661 16.3769C0.875727 19.9495 2.22645 23.3774 4.60866 26.0409C4.80386 26.2841 5.01506 26.5129 5.24066 26.7289C5.50466 26.9929 5.77666 27.2409 6.04066 27.5289C7.11748 28.446 8.31539 29.2105 9.60066 29.8009C10.2437 30.1039 10.9098 30.3554 11.5927 30.5529C13.0211 30.9889 14.5071 31.2074 16.0007 31.2009C17.8975 31.2045 19.7781 30.8517 21.5447 30.1609C22.1793 29.9176 22.7945 29.6261 23.3847 29.2889C24.6276 28.5992 25.7668 27.7373 26.7687 26.7289C26.8087 26.6889 26.8463 26.6465 26.8807 26.6009C27.3569 26.1309 27.7906 25.6195 28.1767 25.0729C30.1109 22.545 31.1696 19.456 31.1927 16.2729C31.2289 15.5457 31.1914 14.8166 31.0807 14.0969ZM28.2647 10.0969C28.3447 10.2569 28.4247 10.4169 28.4967 10.5929C29.0161 11.7613 29.3533 13.0024 29.4967 14.2729L27.3927 12.8009L28.2647 10.0969ZM20.1767 3.05694C22.2225 3.7294 24.0809 4.87511 25.6007 6.40094C26.1895 6.96659 26.7251 7.5852 27.2007 8.24894L25.8407 12.5209L22.0567 13.7129L16.6407 9.75294V5.53694L20.1767 3.05694ZM20.9767 14.9049L19.0967 21.1849H12.6967L10.7767 14.9849L15.8967 11.1609L20.9767 14.9049ZM14.1447 2.52894C14.7599 2.44572 15.3799 2.40296 16.0007 2.40094C16.6241 2.40321 17.2468 2.44596 17.8647 2.52894H18.1047L15.8727 4.12894L13.8567 2.57694L14.1447 2.52894ZM6.40066 6.40094C7.93823 4.86413 9.81935 3.71516 11.8887 3.04894L15.0887 5.51294V9.76094L9.68866 13.7609L5.68866 12.5609L4.44866 8.84894C4.99384 7.95413 5.64968 7.13164 6.40066 6.40094ZM3.41666 10.8649L4.08866 12.9849L2.48866 14.3369C2.63566 13.1422 2.94798 11.9737 3.41666 10.8649ZM2.40066 16.5129L5.17666 14.1129L9.13666 15.2969L11.2007 21.8809L9.60066 24.5289H5.43266C3.57329 22.26 2.50833 19.4444 2.40066 16.5129ZM7.10466 26.2889L6.92866 26.1289H9.52066L10.3207 28.3449C9.1588 27.8115 8.07649 27.1196 7.10466 26.2889ZM20.3847 28.8649C17.7506 29.7573 14.9073 29.827 12.2327 29.0649L10.9687 25.4169L12.5047 22.7849H19.3207L21.6727 24.9449L20.3847 28.8649ZM25.4407 25.7529C24.5861 26.58 23.6258 27.2902 22.5847 27.8649L22.3447 27.9929L23.2007 25.6009H25.6887L25.4407 25.7529ZM27.0007 24.0009H23.0007L20.6007 21.7929L22.5287 15.2009L26.3127 14.0089L29.6007 16.3049C29.5711 19.0809 28.6607 21.7758 27.0007 24.0009Z" fill="#4D545F"/>
</g>
<defs>
<clipPath id="clip0_413_55738">
<rect width="32" height="32" fill="white"/>
</clipPath>
</defs>
</svg>
