<svg width="32" height="32" viewBox="0 0 32 32" fill="none" xmlns="http://www.w3.org/2000/svg">
<g id="plane (1) 1" clip-path="url(#clip0_413_55768)">
<g id="Group">
<g id="Group_2">
<path id="Vector" d="M31.9998 3.80756C32.0103 2.78625 31.6182 1.82613 30.8961 1.10388C30.1833 0.391063 29.2389 0 28.2324 0C28.2191 0 28.2057 6.25e-05 28.1923 0.0001875C27.171 0.0106875 26.2191 0.422375 25.512 1.15925L19.9109 6.99581L5.25475 2.14556L0.926437 6.47388L13.1746 14.0154L8.13488 19.267L4.17938 18.6176L0 22.7969L6.81588 25.1842L9.20312 32L13.3825 27.8206L12.7331 23.8651L17.9848 18.8254L25.5263 31.0736L29.8546 26.7453L25.0044 12.0891L30.8409 6.48806C31.5777 5.78081 31.9893 4.82888 31.9998 3.80756ZM29.5413 5.13387L22.8505 11.5548L27.7092 26.2364L25.8789 28.0667L18.3634 15.8608L10.7211 23.1947L11.3744 27.1744L9.98738 28.5615L8.28862 23.7114L3.4385 22.0126L4.82556 20.6256L8.80525 21.2789L16.1392 13.6367L3.93331 6.12125L5.76363 4.29094L20.4453 9.14962L26.8662 2.45881C27.2211 2.08888 27.6991 1.88225 28.2118 1.87694C28.2184 1.87681 28.2252 1.87681 28.2318 1.87681C28.737 1.87681 29.2112 2.07312 29.5691 2.431C29.9317 2.79356 30.1284 3.27556 30.1231 3.78825C30.1178 4.30094 29.9112 4.77881 29.5413 5.13387Z" fill="#4D545F"/>
</g>
</g>
</g>
<defs>
<clipPath id="clip0_413_55768">
<rect width="32" height="32" fill="white"/>
</clipPath>
</defs>
</svg>
