<svg width="32" height="32" viewBox="0 0 32 32" fill="none" xmlns="http://www.w3.org/2000/svg">
<g id="Icons/Navigations" clip-path="url(#clip0_413_55754)">
<g id="Group">
<path id="Vector" d="M16.0027 1.03633C24.266 1.03633 30.9652 7.7356 30.9652 15.9988C30.9652 24.2621 24.266 30.9613 16.0027 30.9613C7.7395 30.9613 1.04023 24.2621 1.04023 15.9988C1.04023 7.7356 7.7395 1.03633 16.0027 1.03633ZM16.0027 2.16133C8.36037 2.16133 2.16523 8.35646 2.16523 15.9988C2.16523 23.6412 8.36037 29.8363 16.0027 29.8363C23.6451 29.8363 29.8402 23.6412 29.8402 15.9988C29.8402 8.35646 23.6451 2.16133 16.0027 2.16133Z" fill="#4D545F" stroke="#4D545F" stroke-width="0.475"/>
<path id="Vector_2" d="M16 4C22.6272 4 28 9.3728 28 16C28 22.6272 22.6272 28 16 28C9.3728 28 4 22.6272 4 16C4 9.3728 9.3728 4 16 4ZM16 5.6C10.256 5.6 5.6 10.256 5.6 16C5.6 21.744 10.256 26.4 16 26.4C21.744 26.4 26.4 21.744 26.4 16C26.4 10.256 21.744 5.6 16 5.6Z" fill="#4D545F"/>
<path id="Vector_3" fill-rule="evenodd" clip-rule="evenodd" d="M27.2055 14.3977H30.4055V17.5977H27.2055V14.3977ZM1.60547 14.3977H4.80547V17.5977H1.60547V14.3977ZM17.6055 27.1977V30.3977H14.4055V27.1977H17.6055ZM17.6055 1.59766V4.79766H14.4055V1.59766H17.6055ZM9.21747 25.0481L6.95427 27.3113L4.69187 25.0481L6.95427 22.7857L9.21747 25.0481ZM27.3191 6.94726L25.0567 9.20966L22.7935 6.94726L25.0567 4.68406L27.3191 6.94726ZM25.0567 22.7865L27.3191 25.0489L25.0567 27.3121L22.7935 25.0489L25.0567 22.7865ZM6.95427 4.68326L9.21747 6.94646L6.95427 9.20886L4.69187 6.94646L6.95427 4.68326ZM18.0719 19.0905L18.2511 19.4569C18.5871 20.1473 18.1503 20.7977 17.3431 20.7977H14.7127C13.9119 20.7977 13.4647 20.1521 13.7903 19.4601L14.1463 18.7041H13.8471C13.1511 18.7167 12.4775 18.4582 11.9687 17.9833C11.7277 17.7611 11.5354 17.4914 11.404 17.1911C11.2725 16.8909 11.2047 16.5667 11.2048 16.2389C11.205 15.9111 11.2731 15.587 11.4048 15.2869C11.5366 14.9868 11.7291 14.7172 11.9703 14.4953L15.0759 11.5609C15.3291 11.3273 15.661 11.1976 16.0055 11.1976C16.35 11.1976 16.6818 11.3273 16.9351 11.5609L20.0407 14.4961C20.2817 14.718 20.4741 14.9875 20.6058 15.2875C20.7375 15.5876 20.8055 15.9116 20.8057 16.2393C20.8058 16.567 20.7381 16.8911 20.6067 17.1913C20.4753 17.4914 20.2831 17.7611 20.0423 17.9833C19.5488 18.4438 18.8997 18.7012 18.2247 18.7041H17.8863L18.0719 19.0905Z" fill="#4D545F"/>
</g>
</g>
<defs>
<clipPath id="clip0_413_55754">
<rect width="32" height="32" fill="white"/>
</clipPath>
</defs>
</svg>
