<svg width="32" height="32" viewBox="0 0 32 32" fill="none" xmlns="http://www.w3.org/2000/svg">
<path d="M1.43801 16.7355C1.5879 16.8845 1.79066 16.9681 2.00201 16.9681C2.21336 16.9681 2.41612 16.8845 2.56601 16.7355L15.998 2.9035L29.422 16.7195C29.5731 16.853 29.7691 16.9246 29.9707 16.9198C30.1724 16.915 30.3647 16.8342 30.5093 16.6937C30.6539 16.5531 30.7401 16.3631 30.7506 16.1617C30.7612 15.9603 30.6952 15.7624 30.566 15.6075L16.566 1.2075C16.4915 1.1313 16.4025 1.07076 16.3043 1.02942C16.2061 0.988089 16.1006 0.966797 15.994 0.966797C15.8874 0.966797 15.782 0.988089 15.6837 1.02942C15.5855 1.07076 15.4965 1.1313 15.422 1.2075L1.42201 15.6075C1.27512 15.7595 1.19435 15.9634 1.19735 16.1748C1.20034 16.3862 1.28687 16.5877 1.43801 16.7355Z" fill="#4D545F"/>
<path d="M19.1985 31H25.6785C25.8907 31 26.0942 30.9157 26.2442 30.7657C26.3942 30.6157 26.4785 30.4122 26.4785 30.2V15.8C26.4785 15.5878 26.3942 15.3843 26.2442 15.2343C26.0942 15.0843 25.8907 15 25.6785 15C25.4663 15 25.2629 15.0843 25.1128 15.2343C24.9628 15.3843 24.8785 15.5878 24.8785 15.8V29.4H19.9985V21.56C19.9985 21.3478 19.9142 21.1443 19.7642 20.9943C19.6142 20.8443 19.4107 20.76 19.1985 20.76H12.7985C12.5863 20.76 12.3829 20.8443 12.2328 20.9943C12.0828 21.1443 11.9985 21.3478 11.9985 21.56V29.4H7.07852V15.8C7.07852 15.5878 6.99423 15.3843 6.8442 15.2343C6.69417 15.0843 6.49069 15 6.27852 15C6.06634 15 5.86286 15.0843 5.71283 15.2343C5.5628 15.3843 5.47852 15.5878 5.47852 15.8V30.2C5.47852 30.4122 5.5628 30.6157 5.71283 30.7657C5.86286 30.9157 6.06634 31 6.27852 31H12.7985C13.0107 31 13.2142 30.9157 13.3642 30.7657C13.5142 30.6157 13.5985 30.4122 13.5985 30.2V22.36H18.3985V30.2C18.3985 30.4122 18.4828 30.6157 18.6328 30.7657C18.7829 30.9157 18.9863 31 19.1985 31Z" fill="#4D545F"/>
</svg>
