<svg width="32" height="32" viewBox="0 0 32 32" fill="none" xmlns="http://www.w3.org/2000/svg">
<g id="Icon-Live">
<g id="Group 1171274909">
<path id="Fill-1" d="M24.5306 25.5719C22.8901 27.2103 20.8008 28.3256 18.5266 28.7768C16.2524 29.228 13.8955 28.995 11.7538 28.107C9.61207 27.2191 7.78163 25.7162 6.49384 23.7882C5.20605 21.8602 4.51872 19.5938 4.51872 17.2753C4.51872 14.9568 5.20605 12.6903 6.49384 10.7623C7.78163 8.83435 9.61207 7.33142 11.7538 6.44349C13.8955 5.55556 16.2524 5.32249 18.5266 5.77373C20.8008 6.22497 22.8901 7.34027 24.5306 8.97866C26.7273 11.181 27.9608 14.1647 27.9608 17.2753C27.9608 20.3858 26.7273 23.3695 24.5306 25.5719ZM26.1127 8.47148L27.2255 7.32843C27.368 7.18588 27.4481 6.99255 27.4481 6.79096C27.4481 6.58938 27.368 6.39605 27.2255 6.2535C27.0829 6.11096 26.8896 6.03088 26.688 6.03088C26.4864 6.03088 26.2931 6.11096 26.1506 6.2535L25.0378 7.39656C22.811 5.40671 19.9729 4.23463 16.991 4.07337V2.51398H19.6556C19.8564 2.51398 20.0489 2.43422 20.1909 2.29226C20.3328 2.1503 20.4126 1.95775 20.4126 1.75699C20.4126 1.55622 20.3328 1.36368 20.1909 1.22172C20.0489 1.07975 19.8564 1 19.6556 1H12.8427C12.6419 1 12.4494 1.07975 12.3074 1.22172C12.1655 1.36368 12.0857 1.55622 12.0857 1.75699C12.0857 1.95775 12.1655 2.1503 12.3074 2.29226C12.4494 2.43422 12.6419 2.51398 12.8427 2.51398H15.4922V4.07337C12.5049 4.23124 9.66098 5.40354 7.43022 7.39656L6.28717 6.2535C6.14463 6.11096 5.9513 6.03088 5.74971 6.03088C5.54812 6.03088 5.35479 6.11096 5.21225 6.2535C5.0697 6.39605 4.98962 6.58938 4.98962 6.79096C4.98962 6.99255 5.0697 7.18588 5.21225 7.32843L6.36287 8.47148C4.66097 10.3771 3.54682 12.7345 3.15481 15.2593C2.76281 17.784 3.1097 20.3682 4.15364 22.7002C5.19759 25.0322 6.89398 27.0123 9.03819 28.4017C11.1824 29.791 13.6828 30.5303 16.2378 30.5303C18.7928 30.5303 21.2932 29.791 23.4374 28.4017C25.5816 27.0123 27.278 25.0322 28.3219 22.7002C29.3659 20.3682 29.7128 17.784 29.3208 15.2593C28.9288 12.7345 27.8146 10.3771 26.1127 8.47148Z" fill="#4D545F"/>
<path id="Fill-4" d="M16.6222 11.0935C16.823 11.0935 17.0155 11.0138 17.1575 10.8718C17.2995 10.7299 17.3792 10.5373 17.3792 10.3365V8.06558C17.3792 7.86482 17.2995 7.67227 17.1575 7.53031C17.0155 7.38835 16.823 7.30859 16.6222 7.30859C16.4215 7.30859 16.2289 7.38835 16.087 7.53031C15.945 7.67227 15.8652 7.86482 15.8652 8.06558V10.3365C15.8652 10.5373 15.945 10.7299 16.087 10.8718C16.2289 11.0138 16.4215 11.0935 16.6222 11.0935Z" fill="#4D545F"/>
<path id="Fill-6" d="M16.6222 23.2051C16.4215 23.2051 16.2289 23.2848 16.087 23.4268C15.945 23.5688 15.8652 23.7613 15.8652 23.9621V26.233C15.8652 26.4338 15.945 26.6263 16.087 26.7683C16.2289 26.9103 16.4215 26.99 16.6222 26.99C16.823 26.99 17.0155 26.9103 17.1575 26.7683C17.2995 26.6263 17.3792 26.4338 17.3792 26.233V23.9621C17.3792 23.7613 17.2995 23.5688 17.1575 23.4268C17.0155 23.2848 16.823 23.2051 16.6222 23.2051Z" fill="#4D545F"/>
<path id="Fill-8" d="M25.7076 16.3926H23.4367C23.2359 16.3926 23.0434 16.4723 22.9014 16.6143C22.7594 16.7563 22.6797 16.9488 22.6797 17.1496C22.6797 17.3503 22.7594 17.5429 22.9014 17.6848C23.0434 17.8268 23.2359 17.9066 23.4367 17.9066H25.7076C25.9084 17.9066 26.101 17.8268 26.2429 17.6848C26.3849 17.5429 26.4646 17.3503 26.4646 17.1496C26.4646 16.9488 26.3849 16.7563 26.2429 16.6143C26.101 16.4723 25.9084 16.3926 25.7076 16.3926Z" fill="#4D545F"/>
<path id="Fill-10" d="M9.8092 16.3926H7.53824C7.33747 16.3926 7.14493 16.4723 7.00297 16.6143C6.861 16.7563 6.78125 16.9488 6.78125 17.1496C6.78125 17.3503 6.861 17.5429 7.00297 17.6848C7.14493 17.8268 7.33747 17.9066 7.53824 17.9066H9.8092C10.01 17.9066 10.2025 17.8268 10.3445 17.6848C10.4864 17.5429 10.5662 17.3503 10.5662 17.1496C10.5662 16.9488 10.4864 16.7563 10.3445 16.6143C10.2025 16.4723 10.01 16.3926 9.8092 16.3926Z" fill="#4D545F"/>
<path id="Fill-12" d="M16.2509 17.9634C16.089 18.119 15.8732 18.206 15.6487 18.206C15.4242 18.206 15.2084 18.119 15.0465 17.9634C14.9272 17.8441 14.8459 17.6922 14.8129 17.5267C14.78 17.3612 14.7968 17.1897 14.8612 17.0338C14.9257 16.8779 15.0349 16.7447 15.1751 16.6509C15.3153 16.5571 15.4801 16.5071 15.6487 16.5071C15.8173 16.5071 15.9821 16.5571 16.1223 16.6509C16.2624 16.7447 16.3717 16.8779 16.4361 17.0338C16.5006 17.1897 16.5174 17.3612 16.4844 17.5267C16.4515 17.6922 16.3702 17.8441 16.2509 17.9634ZM20.4892 13.3409C20.5426 13.2868 20.5847 13.2227 20.6133 13.1522C20.6419 13.0818 20.6563 13.0064 20.6558 12.9304C20.6553 12.8544 20.6398 12.7792 20.6102 12.7092C20.5807 12.6391 20.5376 12.5756 20.4835 12.5222C20.4294 12.4688 20.3654 12.4266 20.295 12.398C20.2246 12.3694 20.1493 12.355 20.0733 12.3555C19.9973 12.356 19.9222 12.3715 19.8522 12.4011C19.7822 12.4307 19.7188 12.4738 19.6654 12.5279L16.5804 15.6152C16.2051 15.4185 15.7778 15.3441 15.3582 15.4022C14.9386 15.4603 14.5476 15.648 14.2397 15.9393C13.8713 16.3155 13.667 16.8226 13.6716 17.3493C13.6738 17.6775 13.7577 17.9999 13.9159 18.2874L13.2511 18.9583C13.1453 19.0649 13.0859 19.209 13.0859 19.3592C13.0859 19.5094 13.1453 19.6535 13.2511 19.76C13.3576 19.8659 13.5016 19.9254 13.6517 19.9254C13.8018 19.9254 13.9458 19.8659 14.0522 19.76L14.7226 19.0948C15.0974 19.2989 15.5281 19.3761 15.9504 19.315C16.3727 19.254 16.7639 19.0578 17.0656 18.7559C17.3673 18.4539 17.5633 18.0625 17.6243 17.6399C17.6853 17.2173 17.6081 16.7862 17.4042 16.4112L20.4892 13.3409Z" fill="#4D545F"/>
</g>
</g>
</svg>
