<svg width="32" height="32" viewBox="0 0 32 32" fill="none" xmlns="http://www.w3.org/2000/svg">
<g id="Icons/Navigations">
<path id="Vector" d="M29.1974 4.1604L17.5174 2.0804C16.7974 1.52041 15.8374 1.28041 14.9574 1.52041L2.63736 4.80041C1.11736 5.2004 0.237362 6.8004 0.637362 8.3204L5.83736 27.6804C6.23736 29.2004 7.83736 30.0804 9.35736 29.6804L12.0774 28.9604L24.4774 31.1204C26.2374 31.4404 27.8374 30.3204 28.1574 28.5604L31.8374 7.8404C32.0774 6.0804 30.9574 4.4004 29.1974 4.1604ZM8.87736 28.0804C8.23736 28.2404 7.51736 27.8404 7.35736 27.2004L2.15736 7.8404C1.99736 7.20041 2.39736 6.4804 3.03736 6.32041L15.2774 3.04041C15.9174 2.8804 16.6374 3.28041 16.7974 3.92041L21.9974 23.2804C22.1574 23.9204 21.7574 24.6404 21.1174 24.8004L8.87736 28.0804ZM30.2374 7.5204L26.5574 28.2404C26.3974 29.0404 25.5974 29.6804 24.7174 29.5204L15.7574 28.0004L21.5974 26.4004C23.1174 26.0004 23.9974 24.4004 23.5974 22.8804L18.4774 3.84041L28.8774 5.6804C29.8374 5.8404 30.3974 6.6404 30.2374 7.5204Z" fill="#4D545F"/>
<path id="Vector_2" d="M11.1202 11.4388C11.0402 11.4388 10.9602 11.4388 10.8802 11.5188C9.28023 13.0388 7.76023 16.8788 8.24023 18.6388C8.72023 20.3988 10.3202 20.8788 11.2802 20.6388C11.8402 20.4788 12.0802 20.2388 12.2402 20.0788C12.3202 19.9988 12.4002 19.9988 12.5602 19.9988C12.6402 20.0788 12.7202 20.1588 12.7202 20.3188C12.7202 20.7988 12.4802 21.5188 12.4002 21.8388C12.4002 21.9188 12.4002 22.0788 12.4802 22.1588C12.5602 22.2388 12.6402 22.3188 12.7202 22.2388L13.8402 21.9188L14.9602 21.5988C15.0402 21.5988 15.1202 21.5188 15.1202 21.3588C15.1202 21.2788 15.1202 21.1188 15.0402 21.0388C14.8002 20.7988 14.2402 20.3188 14.0002 19.9188C13.9202 19.8388 13.9202 19.6788 13.9202 19.5988C14.0002 19.4388 14.0802 19.3588 14.2402 19.4388C14.4002 19.5188 14.8002 19.5188 15.3602 19.4388C16.3202 19.1988 17.4402 17.9988 16.9602 16.1588C16.4802 14.4788 13.2802 11.9188 11.1202 11.4388ZM5.36023 6.79883C5.20023 6.79883 4.96023 6.87883 4.64023 6.95883C4.56023 7.83883 4.48023 9.59883 4.24023 12.1588C4.40023 12.0788 4.72023 11.9988 5.20023 11.9188C5.20023 11.7588 5.20023 11.4388 5.28023 11.0388C5.52023 10.9588 6.08023 10.7988 6.96023 10.5588C7.04023 10.7188 7.20023 10.9588 7.44023 11.2788C7.60023 11.1988 7.92023 11.1188 8.40023 11.0388C7.84023 10.3188 6.88023 8.87883 5.36023 6.79883ZM5.28023 10.1588C5.28023 9.83883 5.36023 9.19883 5.44023 8.31883C5.60023 8.55883 5.92023 9.11883 6.48023 9.83883C6.24023 9.83883 5.84023 9.99883 5.28023 10.1588Z" fill="#4D545F"/>
</g>
</svg>
